<svg width="545" height="707" viewBox="0 0 545 707" fill="none" xmlns="http://www.w3.org/2000/svg">
<g filter="url(#filter0_f_1344_1949)">
<path d="M74.5959 682.231C74.5959 681.98 74.1822 680.441 73.469 678.37C73.1841 677.543 72.9973 677.191 72.5981 675.134C72.199 673.076 71.5783 669.329 70.7586 665.864C69.9389 662.399 68.939 659.33 68.1653 656.642C67.3915 653.955 66.8743 651.742 66.5389 650.067C66.2035 648.392 66.0656 647.321 65.9428 645.645C65.82 643.969 65.7166 641.721 65.5944 640.099C65.4721 638.477 65.3342 637.549 64.4528 634.448C63.5715 631.347 61.9509 626.1 61.0298 622.952C60.1088 619.803 59.9364 618.911 59.7269 617.077C59.5174 615.243 59.276 612.495 59.0273 609.664" stroke="#70D9FF" stroke-width="2" stroke-linecap="round"/>
<path d="M58.7088 609.448C58.7088 609.34 58.7088 609.233 58.5709 607.073C58.4329 604.912 58.1571 600.701 58.0495 598.085C57.9418 595.47 58.0108 594.577 58.4946 591.298C58.9784 588.019 59.8749 582.38 60.3367 579.137C60.7985 575.893 60.7985 575.215 60.5744 574.151C60.3503 573.088 59.902 571.661 59.6194 570.658C59.1894 569.132 59.1612 567.604 59.2307 566.037C59.2575 565.433 59.3002 565.22 59.1283 565.038C58.6847 564.569 57.1174 564.424 54.1876 564.1C52.3291 563.895 49.7062 563.706 47.9252 563.488C46.1442 563.271 45.2822 563.057 44.5106 562.821C43.07 562.382 41.8916 561.722 40.6597 560.682C39.9057 560.045 39.0485 558.999 38.4487 558.234C37.5015 557.027 37.0131 555.849 36.5779 554.822C36.085 553.66 35.3789 551.887 35.0085 549.797C34.9223 548.935 34.7499 547.579 34.6611 546.755C34.5723 545.932 34.5723 545.682 34.5723 545.424" stroke="#70D9FF" stroke-width="2" stroke-linecap="round"/>
<path d="M34.5723 544.667V545.207" stroke="#70D9FF" stroke-width="2" stroke-linecap="round"/>
<path d="M35.307 544.343C35.307 544.129 35.307 543.915 35.307 542.948C35.307 541.981 35.307 540.268 35.4967 537.851C35.6863 535.434 36.0656 532.365 36.261 530.266C36.552 527.141 36.4219 525.852 36.3007 525.367C35.9124 523.813 34.4732 522.717 33.2633 521.07C32.2785 519.73 30.4672 517.425 29.3884 516.105C28.06 514.48 27.3002 513.886 26.6048 513.13C26.0084 512.482 25.5918 511.58 25.2266 510.465C24.8492 509.314 24.8928 507.798 25.2381 505.679C25.4475 504.395 25.306 503.006 25.7287 501.982C26.3927 500.601 26.9857 499.49 27.2642 498.896C27.3702 498.659 27.9964 496.692 28.0319 496.581" stroke="#70D9FF" stroke-width="2" stroke-linecap="round"/>
<path d="M26.4961 500.439C26.4961 500.225 27.4317 498.315 27.9014 497.02C28.2598 496.031 28.3742 494.462 28.5132 492.643C28.59 491.638 28.7577 490.958 28.8271 490.292C28.871 489.872 29.208 488.943 29.9535 487.075C30.3913 485.979 31.0783 484.637 31.9847 483.028C32.8912 481.419 34.029 479.599 34.8738 477.984C35.7186 476.368 36.2358 475.012 37.5367 472.529C38.8375 470.046 40.9064 466.477 42.2652 464.281C43.6241 462.086 44.2103 461.372 44.6501 460.683C45.09 459.994 45.3659 459.352 45.7666 458.004C46.1673 456.656 46.6845 454.622 47.382 452.717C48.0794 450.813 48.9414 449.1 49.6441 447.271C50.3468 445.443 51.479 443.329 51.8317 441.801C52.1843 440.274 52.5623 439.803 52.5994 438.715C52.6365 437.628 52.6872 436.305 52.5994 435.629C52.5116 434.953 52.6705 434.38 52.5994 434.086" stroke="#70D9FF" stroke-width="2" stroke-linecap="round"/>
<path d="M52.7559 436.196C52.7559 435.589 52.7559 434.982 52.8421 433.385C52.9283 431.787 53.1007 429.218 53.4998 427.038C53.8989 424.857 54.5196 423.144 55.7531 419.086C56.9865 415.027 58.814 408.674 59.7899 404.777C60.7658 400.88 60.8348 399.631 60.8186 397.792C60.8024 395.953 60.699 393.562 60.8008 391.884C60.9027 390.206 61.213 389.314 61.5453 388.497C61.8776 387.681 62.2224 386.967 63.1414 385.76C64.0603 384.554 65.543 382.877 67.4964 381.156C69.4498 379.435 69.7312 379.453 71.0258 378.535C72.3204 377.617 73.1869 374.751 73.329 374.677" stroke="#70D9FF" stroke-width="2" stroke-linecap="round"/>
<path d="M72.5059 376.606C72.7127 376.392 73.3021 375.068 74.792 371.927C75.7252 369.96 77.3164 367.394 78.6152 365.463C79.914 363.532 80.9484 362.354 81.7916 361.516C82.6348 360.677 83.2555 360.213 84.4717 359.01C85.688 357.808 87.4809 355.881 88.646 354.513C89.811 353.146 90.2937 352.396 91.4389 350.029C92.5841 347.663 94.3771 343.701 95.9042 340.679C97.4313 337.657 98.6381 335.694 100.156 333.88C101.674 332.066 103.467 330.46 105.115 329.186C106.763 327.913 108.211 327.02 109.457 326.097C110.703 325.173 111.703 324.245 112.598 323.286C113.492 322.326 114.251 321.362 115.141 320.455C116.032 319.549 117.032 318.728 117.771 318.18C118.51 317.632 118.959 317.382 119.421 317.125" stroke="#70D9FF" stroke-width="2" stroke-linecap="round"/>
<path d="M119.316 316.909C120.041 316.302 120.765 315.696 122.207 314.437C123.648 313.179 125.786 311.288 127.284 310.028C128.782 308.768 129.575 308.197 133.07 306.6C136.564 305.003 142.736 302.398 147.571 300.824C152.405 299.25 155.716 298.786 162.524 297.173C169.332 295.56 179.539 292.812 186.641 291.2C193.744 289.588 197.433 289.195 200.713 288.672C203.993 288.148 206.751 287.506 209.569 287.104C212.386 286.701 215.179 286.559 217.687 285.878C220.195 285.198 220.737 284.406 223.04 283.634" stroke="#70D9FF" stroke-width="2" stroke-linecap="round"/>
<path d="M223.039 283.634C223.522 283.634 225.493 283.566 227.843 283.133C228.936 282.933 229.751 282.52 230.915 282.088C231.929 281.713 232.852 281.293 233.756 280.97C235.305 280.416 236.232 279.708 236.651 279.276C236.818 279.104 236.655 278.845 236.499 278.681C235.942 278.1 235.057 277.978 234.114 277.437C233.598 277.141 232.965 276.717 232.218 275.998C230.427 274.275 230.004 272.86 229.463 272.281C229.041 271.83 228.574 271.309 228.313 270.481C227.825 268.938 228.121 266.769 227.999 265.687C227.914 264.926 227.528 264.315 227.373 263.526C227.102 262.153 226.832 260.964 226.814 260.262C226.798 259.595 226.865 258.052 227.074 255.661C227.273 253.384 227.076 251.844 226.834 250.963C226.243 248.819 225.337 247.556 224.674 246.741C224.43 246.435 224.151 245.789 223.856 244.978C223.732 244.667 223.663 244.56 223.592 244.45" stroke="#70D9FF" stroke-width="2" stroke-linecap="round"/>
<path d="M225.344 248.143C223.808 245.057 223.16 243.789 222.273 242.742C221.417 241.734 223.284 239.305 223.215 237.255C223.148 235.267 222.694 233.784 222.329 232.903C221.62 231.187 220.707 229.565 220.654 228.449C220.624 227.8 220.498 225.829 220.342 223.181C220.263 221.842 220.045 220.274 220.028 218.22C220.018 217.094 220.113 216.265 220.374 215.293C220.608 214.422 220.394 213.667 220.013 212.681C219.291 210.809 218.513 209.521 218.34 209.053C218.097 208.515 217.921 208.006 217.817 207.521C217.747 207.251 217.644 206.929 217.537 206.49" stroke="#70D9FF" stroke-width="2" stroke-linecap="round"/>
<path d="M217.111 206.058C217.111 205.844 216.904 204.699 216.539 203.006C216.34 202.081 216.376 200.89 216.736 199.905C217.387 198.122 217.354 196.165 217.406 195.913C217.454 195.676 216.305 199.189 216.866 200.4C216.961 200.604 217.211 199.689 217.318 198.146C217.425 196.603 217.425 194.069 217.476 192.568C217.542 190.668 217.738 189.912 217.755 189.282C217.792 187.933 217.391 186.127 217.233 185.083C216.991 183.477 217.111 182.343 217.059 181.212C217.029 180.543 216.904 179.688 216.885 175.82C216.867 171.953 216.936 165.101 217.006 161.303C217.076 157.506 217.145 156.97 217.249 156.409C217.623 154.401 217.565 153.324 217.495 152.098C217.457 151.443 217.251 150.549 217.129 149.63C217.042 149.175 216.352 147.887 215.187 145.567C214.677 144.425 214.332 143.355 213.977 142.143" stroke="#70D9FF" stroke-width="2" stroke-linecap="round"/>
<path d="M213.77 141.818C213.012 140.319 212.414 138.904 211.997 137.717C211.264 135.91 211.054 134.899 210.588 134.556C210.123 134.428 209.192 134.392 208.232 134.356" stroke="#70D9FF" stroke-width="2" stroke-linecap="round"/>
<path d="M207.084 132.951C206.6 132.305 205.623 131.582 205.206 131.509C204.79 131.437 204.473 131.724 204.299 131.94C204.067 132.227 204.158 132.625 204.038 132.841C203.828 133.215 203.358 133.274 202.995 133.436C202.72 133.559 202.183 133.492 201.727 133.331C201.271 133.17 200.892 132.849 200.266 132.148C199.639 131.448 198.777 130.377 197.816 128.951C196.855 127.525 195.82 125.776 194.977 124.001C194.134 122.226 193.513 120.477 193.073 118.309C192.632 116.141 192.391 113.608 192.284 111.874C192.177 110.14 192.211 109.284 193.005 106.327C193.798 103.369 195.35 98.3372 196.236 93.9962C197.121 89.6551 197.293 86.1576 197.348 84.0525C197.439 80.5348 196.984 79.8894 196.516 79.2227C196.145 78.6956 195.732 78.0866 195.073 77.6724C194.307 77.1914 193.227 77.5058 192.185 78.0076C190.841 78.6553 189.745 80.3112 188.65 81.822C187.727 83.0947 187.476 84.2445 187.406 85.9992C187.352 87.3602 187.474 89.6811 187.492 91.0189C187.514 92.6421 187.199 93.3289 186.626 94.1914C185.881 95.1966 185.317 96.0337 185.108 96.5555C185.037 96.7918 185.037 96.9702 185.037 97.1541" stroke="#70D9FF" stroke-width="2" stroke-linecap="round"/>
<path d="M366.32 5.0119C366.32 4.97621 366.32 4.94052 368.562 6.18908C370.803 7.43764 375.285 9.97154 377.819 11.4375C380.352 12.9034 380.8 13.2246 381.738 13.7291C382.676 14.2336 384.089 14.9117 385.283 15.4216C386.477 15.9315 387.408 16.2527 389.163 17.0784C390.919 17.9041 393.47 19.2246 395.267 20.3153C397.065 21.406 398.03 22.2268 399.751 24.5768C401.473 26.9269 403.921 30.7813 405.682 33.8018C407.443 36.8224 408.443 38.8923 409.372 41.4219C410.301 43.9514 411.129 46.8779 411.607 48.8137C412.085 50.7496 412.188 51.6061 412.638 53.8318C413.088 56.0575 413.881 59.6263 414.582 61.9288C415.284 64.2312 415.87 65.1591 416.345 66.0832C416.819 67.0074 417.164 67.8996 417.519 68.8188" stroke="#70D9FF" stroke-width="2" stroke-linecap="round"/>
<path d="M416.897 67.5205C417.415 68.0201 417.932 68.5198 418.491 69.6159C419.051 70.7119 419.637 72.3893 420.249 74.7166C420.862 77.044 421.482 79.9704 421.767 82.9055C422.053 85.8407 421.984 88.6958 421.828 90.6484C421.671 92.601 421.43 93.5646 421.15 94.4714C420.612 96.217 419.896 97.6871 418.994 99.1601C418.472 100.014 417.679 100.99 417.029 101.969C416.38 102.947 415.863 103.875 415.286 104.871C414.709 105.866 414.089 106.901 413.449 107.968" stroke="#70D9FF" stroke-width="2" stroke-linecap="round"/>
<path d="M413.234 108.076C413.234 108.005 412.717 109.396 411.865 111.844C411.511 112.858 411.391 113.436 411.027 114.604C410.663 115.773 410.077 117.522 409.723 118.672C409.369 119.823 409.266 120.323 408.523 122.24C407.78 124.157 406.401 127.476 404.122 134.235C401.842 140.995 398.704 151.095 397.054 157.369C395.403 163.642 395.334 165.784 395.35 167.261C395.366 168.739 395.469 169.489 395.506 171.017C395.542 172.545 395.507 174.829 395.386 176.398C395.265 177.967 395.058 178.753 394.693 179.567C394.327 180.382 393.81 181.203 393.277 182.157" stroke="#70D9FF" stroke-width="2" stroke-linecap="round"/>
<path d="M393.803 181.833C393.32 184.973 392.485 187.448 391.476 188.835C390.902 189.624 390.357 189.942 389.647 190.801C389.126 191.432 388.35 192.518 387.735 193.266C387.12 194.013 386.706 194.406 385.544 196.286C384.383 198.165 382.487 201.52 380.889 204.836C379.291 208.153 378.05 211.329 377.152 214.107C376.254 216.885 375.737 219.17 375.143 222.666C374.549 226.162 373.894 230.802 373.28 234.138C372.667 237.473 372.115 239.365 371.555 242.588C370.995 245.811 370.443 250.307 369.875 255.157" stroke="#70D9FF" stroke-width="2" stroke-linecap="round"/>
<path d="M369.768 255.698C369.768 255.841 369.768 255.983 369.699 257.574C369.63 259.164 369.492 262.197 369.473 264.206C369.454 266.215 369.557 267.107 369.714 267.906C370.007 269.399 370.429 270.295 370.706 270.852C371.086 271.612 371.195 272.779 371.283 274.483C371.337 275.545 371.267 277.009 371.18 278.156C371.093 279.302 370.955 280.087 371.039 283.882C371.123 287.677 371.434 294.458 371.783 298.504C372.133 302.55 372.512 303.657 373.087 304.726C373.661 305.796 374.42 306.795 375.018 307.703C375.615 308.61 376.029 309.395 376.501 310.067C376.973 310.739 377.49 311.275 378.308 312.389C379.126 313.504 380.229 315.181 381.005 316.295C381.78 317.409 382.194 317.908 382.89 318.487C384.551 319.708 385.891 321.048 386.465 322.147C386.694 322.567 386.798 322.71 386.904 322.965" stroke="#70D9FF" stroke-width="2" stroke-linecap="round"/>
<path d="M386.176 321.992C386.521 322.527 386.865 323.062 388.405 324.712C389.945 326.362 392.669 329.11 398.451 332.881C404.233 336.652 412.991 341.363 420.951 345.093C428.911 348.822 435.807 351.427 443.946 353.947C452.084 356.467 461.256 358.822 466.395 360.196C471.533 361.57 472.361 361.892 473.132 362.146C473.903 362.401 474.593 362.579 475.448 362.868C476.303 363.156 477.442 363.263 478.698 363.875C479.954 364.488 481.672 365.128 483.304 366.19" stroke="#70D9FF" stroke-width="2" stroke-linecap="round"/>
<path d="M481.887 365.574C482.232 365.574 483.478 366.324 485.736 368.441C487.052 369.676 488.2 371.771 490.547 374.852C492.893 377.933 496.273 382.073 498.255 384.438C500.237 386.802 500.719 387.266 501.416 387.755C502.954 388.834 504.52 389.687 505.718 390.621C506.344 391.109 506.951 391.698 507.598 392.474C508.246 393.25 508.901 394.214 510.618 397.405C512.334 400.596 515.093 405.985 518.376 414.257C521.659 422.529 526 432.769 529.941 444.31" stroke="#70D9FF" stroke-width="2" stroke-linecap="round"/>
<path d="M529.632 443.874C529.632 443.838 529.632 443.803 530.028 444.302C530.425 444.801 531.218 445.836 532.161 448.742C533.104 451.649 534.173 456.395 534.896 460.536C535.619 464.676 535.964 468.067 536.141 471.08C536.319 474.094 536.319 476.628 536.233 478.754C536.147 480.88 535.974 482.522 535.11 487.293C534.245 492.065 532.693 499.916 531.635 504.835C530.577 509.754 530.06 511.503 529.527 513.305" stroke="#70D9FF" stroke-width="2" stroke-linecap="round"/>
<path d="M530.367 512.547C530.367 512.618 530.367 512.69 530.178 517.705C529.988 522.721 529.609 532.678 529.482 538.271C529.356 543.864 529.494 544.792 529.789 545.663C530.084 546.534 530.533 547.319 530.867 547.991C531.201 548.663 531.408 549.198 531.566 550.812C531.725 552.426 531.828 555.103 531.95 556.696C532.073 558.289 532.211 558.717 532.626 559.473C533.657 561.346 534.615 562.831 534.876 563.784C534.965 564.308 534.965 564.914 534.896 565.887C534.827 566.86 534.689 568.18 534.547 569.757" stroke="#70D9FF" stroke-width="2" stroke-linecap="round"/>
<path d="M536.008 566.837C536.008 566.766 536.112 568.156 536.303 570.516C536.411 571.845 536.806 572.923 537.397 574.271C537.987 575.619 538.756 576.746 539.382 577.859C540.072 579.088 540.049 580.708 539.945 582.058C539.875 582.96 539.596 583.704 539.475 585.102C539.39 586.07 539.387 587.571 539.318 588.611C539.212 590.192 538.866 591.237 538.415 592.94C538.099 594.133 537.757 596.035 536.441 600.721C535.125 605.407 532.884 612.83 531.557 617.011C530.23 621.192 529.885 621.906 529.518 622.844C529.151 623.783 528.771 624.925 527.731 628.761C526.691 632.597 525.001 639.092 524.097 642.51C523.192 645.927 523.123 646.07 523.053 646.286C522.983 646.503 522.914 646.788 522.738 647.299" stroke="#70D9FF" stroke-width="2" stroke-linecap="round"/>
<path d="M526.179 636.278C526.179 636.21 526.014 636.757 525.73 637.897C525.467 638.95 525.477 640.114 525.312 641.511C525.218 642.304 524.815 643.217 524.313 644.242C523.812 645.267 523.15 646.363 522.792 647.014C522.434 647.664 522.401 647.836 522.351 649.123C522.301 650.411 522.235 652.809 522.151 654.251C522.067 655.692 521.968 656.103 521.519 657.24C521.071 658.377 520.276 660.228 519.834 661.318C519.391 662.408 519.325 662.682 518.695 664.485C518.065 666.289 516.873 669.612 516.11 671.582C515.347 673.551 515.049 674.065 514.764 674.724C514.478 675.383 514.213 676.171 513.646 677.639C513.079 679.107 512.218 681.232 511.676 682.498C510.732 684.698 509.666 685.527 508.776 686.533C508.624 686.708 508.524 686.777 508.424 686.864C508.323 686.95 508.223 687.053 508.121 687.263" stroke="#70D9FF" stroke-width="2" stroke-linecap="round"/>
<path d="M210.321 133.578C209.803 132.372 209.212 130.677 208.592 127.611C208.193 125.636 208.036 122.734 207.45 120.344C206.384 116.006 204.763 113.475 203.981 111.384C203.495 110.083 202.682 108.355 201.925 105.413C201.169 102.47 200.456 98.3806 200.025 95.1343C199.593 91.888 199.463 89.6086 199.785 86.859C200.107 84.1094 200.884 80.9585 201.447 79.0001C202.009 77.0418 202.333 76.3714 202.666 75.6807" stroke="#70D9FF" stroke-width="2" stroke-linecap="round"/>
<path d="M202.861 75.2748C202.732 71.9228 202.602 68.5708 202.665 65.2016C202.728 61.8323 202.987 58.5474 203.25 56.2518C203.653 52.7327 204.557 49.9643 205.731 46.9577C206.315 45.461 207.163 44.1522 208.179 42.7576C209.195 41.363 210.425 39.9551 211.999 38.3919C213.572 36.8287 215.45 35.1527 219.656 32.1105C223.862 29.0683 230.339 24.7108 238.437 20.7229C246.534 16.7351 256.055 13.249 263.648 10.8834C271.241 8.51769 276.617 7.37802 292.729 6.35516C308.841 5.3323 338.345 6.00388 365.839 5.10596" stroke="#70D9FF" stroke-width="2" stroke-linecap="round"/>
<path d="M351.402 203.146C352.187 203.865 354.215 206.15 357.01 206.56C359.351 206.903 363.641 206.699 366.669 206.519C371.374 206.239 373.407 205.426 374.415 204.837C376.073 203.867 378.24 201.973 380.873 199.114C383.855 195.262 385.994 191.769 386.961 189.54C387.404 188.574 387.753 187.942 388.112 187.292" stroke="#70D9FF" stroke-width="2" stroke-linecap="round"/>
<path d="M386.528 188.931C387.748 188.21 389.335 186.214 391.006 182.717C391.868 180.912 392.153 178.768 392.421 175.128C392.689 171.489 392.776 166.347 392.647 163.202C392.404 157.288 390.23 154.866 388.953 152.447C388.467 151.526 387.589 150.668 386.492 149.757C384.437 148.053 381.695 148.749 377.704 148.295C372.624 147.717 368.751 148.563 367.653 149.29C365.933 150.75 363.826 152.565 362.11 154.43C361.441 155.214 361.18 155.665 360.91 156.403" stroke="#70D9FF" stroke-width="2" stroke-linecap="round"/>
<path d="M344.27 216.267C343.747 218.251 342.781 221.529 341.55 225.307C340.802 227.602 340.637 228.904 338.97 230.398C336.356 232.739 334.94 235.489 334.198 237.389C333.589 238.948 332.323 241.634 331.127 243.975C328.928 248.284 326.848 251.155 325.398 252.883C322.95 255.803 319.189 257.084 315.299 259.254C312.161 261.004 306.789 264.311 300.389 267.292C293.989 270.273 286.755 272.889 282.898 274.326C278.753 275.872 277.813 276.311 276.102 276.675C273.804 277.163 270.431 277.224 266.217 277.314C261.648 277.412 258.969 277.861 258.006 278.043C254.427 278.719 251.587 279.044 247.424 279.318C244.829 279.411 241.256 279.411 239.241 279.366C237.226 279.321 236.877 279.23 236.254 279.137" stroke="#70D9FF" stroke-width="2" stroke-linecap="round"/>
<path d="M413.439 107.722C407.798 111.717 400.368 113.715 395.665 116.967C392.93 118.858 388.734 119.913 382.661 120.855C376.588 121.798 368.571 122.259 363.402 122.343C358.232 122.427 356.154 122.12 352.188 121.808C348.223 121.496 342.433 121.188 338.039 120.569C330.741 119.54 325.396 116.388 317.489 111.906C312.208 108.913 303.941 105.273 297.136 100.989C290.332 96.705 285.136 92.0951 281.048 89.4898C276.961 86.8846 274.14 86.4236 272.316 86.1861C270.492 85.9486 269.75 85.9486 268.476 87.1779C261.945 93.4839 261.49 97.8877 260.516 100.914C260.245 101.757 260.14 102.693 260.583 103.322C261.607 104.774 263.582 105.035 264.331 106.118C264.723 106.684 264.783 107.508 264.711 108.134C264.579 109.278 260.918 112.001 256.492 115.801C254.829 117.228 257.13 118.851 257.439 120.162C257.004 121.165 255.371 122.855 254.975 124.033C254.58 125.212 255.47 125.826 256.388 126.459" stroke="#70D9FF" stroke-width="2" stroke-linecap="round"/>
<path d="M267.639 85.483C266.299 85.6366 261.818 87.7925 258.875 90.0556C255.906 92.3392 250.274 91.5363 243.377 89.6877C237.045 87.9906 233.903 83.9324 232.857 84.0069C228.358 84.3273 223.137 95.3639 221.524 99.2916C221.208 100.06 224.729 100.225 228.398 100.844C229.996 101.114 231.028 101.464 229.782 103.236C228.535 105.007 224.972 108.234 223.36 109.973C221.747 111.713 222.192 111.866 223.238 111.945C224.284 112.025 225.917 112.025 225.868 112.101C224.844 113.69 221.31 113.258 219.59 114.576C218.161 115.67 214.135 108.989 208.669 100.204C206.32 98.181 204.836 101.101 203.774 103.373C202.712 105.645 202.118 107.182 201.057 109.231" stroke="#70D9FF" stroke-width="2" stroke-linecap="round"/>
<path d="M253.689 94.7959C248.939 97.2545 245.601 100.519 244.696 103.776C244.177 105.646 246.937 106.586 246.943 108.67C246.957 112.867 243.347 117.123 243.34 121C245.115 123.34 246.491 124.9 246.269 126.602C246.046 127.535 245.601 128.611 244.692 129.719" stroke="#70D9FF" stroke-width="2" stroke-linecap="round"/>
<path d="M242.439 282.916C242.439 282.609 244.815 284.909 249.824 289.633C254.877 294.398 259.225 296.415 261.69 297.805C265.122 299.74 270.89 303.693 279.044 308.182C283.098 310.413 286.753 312.978 294.232 316.473C301.711 319.967 312.846 324.424 319.324 326.873C325.803 329.322 327.287 329.63 335.624 329.942C343.96 330.254 359.103 330.561 367.498 330.565C379.343 329.485 381.673 327.942 385.801 324.526C386.635 323.895 386.877 323.913 387.336 323.755" stroke="#70D9FF" stroke-width="2" stroke-linecap="round"/>
<path d="M446.729 506.307C446.729 505.906 446.342 509.309 445.561 518.589C444.444 531.855 443.993 542.139 442.631 546.889C440.125 555.623 436.559 559.557 435.77 568.865C435.96 574.119 436.741 578.209 437.622 580.737C437.922 581.861 437.922 582.664 438.509 584.706" stroke="#70D9FF" stroke-width="2" stroke-linecap="round"/>
<path d="M534.81 584.099C533.061 572.801 529.925 562.433 528.46 560.813C526.111 558.217 515.892 559.181 504.125 561.397C501.069 561.972 498.077 563.812 491.054 565.939C484.032 568.067 473.181 570.874 466.719 572.822C455.254 576.278 448.931 582.434 444.788 585.311C444.004 585.515 443.035 585.715 441.761 585.819C440.487 585.922 438.937 585.922 437.34 585.922" stroke="#70D9FF" stroke-width="2" stroke-linecap="round"/>
<path d="M442.034 585.921C440.483 585.921 431.934 585.921 419.706 586.021C415.228 586.058 414.26 586.322 408.82 586.526C403.38 586.729 393.498 586.93 386.276 586.933C369.226 586.94 364.938 585.921 360.922 585.116C356.435 584.216 353.195 582.08 348.691 581.162C346.39 580.694 341.856 580.457 335.993 579.546C331.718 578.881 322.714 576.228 310.98 571.569C306.465 569.777 304.671 569.719 297.475 569.716C290.279 569.713 277.684 569.913 270.615 569.816C259.703 569.666 253.199 565.27 247.988 563.945C244.614 563.087 239.683 562.219 233.221 564.942C227.73 567.255 219.355 567.081 207.937 565.677C201.945 564.273 195.551 561.466 188.285 560.019C181.018 558.573 173.074 558.573 164.889 558.573" stroke="#70D9FF" stroke-width="2" stroke-linecap="round"/>
<path d="M169.003 693.492C169.003 689.675 166.29 676.743 163.043 669.811C161.309 666.109 159.426 656.894 157.371 645.86C155.984 638.415 153.361 633.97 151.49 628.078C149.971 623.29 148.264 618.351 145.915 610.465C145.096 607.716 146.097 604.981 147.559 601.848C151.23 593.983 162.321 590.601 167.224 587.25C168.364 586.47 169.567 585.934 170.069 585.323C170.853 584.368 170.177 582.488 170.565 580.568C170.952 579.65 171.727 578.848 173.871 577.632C176.014 576.417 179.502 574.812 183.682 572.552" stroke="#70D9FF" stroke-width="2" stroke-linecap="round"/>
<path d="M157.254 587.744C158.61 583.52 162.139 573.803 165.072 562.766C165.668 560.408 165.862 559.205 166.155 558.083C166.449 556.962 166.595 553.165 166.995 552.132" stroke="#70D9FF" stroke-width="2" stroke-linecap="round"/>
<path d="M166.994 552.132C166.994 551.731 167.625 548.272 168.212 542.009C168.834 535.373 168.993 526.217 169.873 512.294C170.398 503.998 170.173 493.156 170.076 486.975C169.979 480.794 169.785 479.591 169.686 476.665C169.586 473.739 169.586 469.126 169.586 464.373" stroke="#70D9FF" stroke-width="2" stroke-linecap="round"/>
<path d="M27.4902 507.523C30.5964 506.119 36.8732 502.867 41.459 501.956C51.2817 500.003 61.4757 499.622 69.5405 499.118C76.132 498.705 82.0795 499.817 85.3031 501.433C91.1558 504.368 95.9661 510.744 100.675 513.39C107.388 517.163 120.439 513.807 127.089 513.7C129.08 513.669 132.177 515.812 136.866 518.945C140.925 521.657 147.42 525.931 155.244 530.383C162.129 535.868 165.405 536.58 167.763 539.017C168.159 539.825 167.563 542.406 167.763 543.646" stroke="#70D9FF" stroke-width="2" stroke-linecap="round"/>
<path d="M167.238 673.436C170.926 673.436 183.033 669.826 189.046 665.243C193.314 661.99 199.697 659.676 206.159 658.549C211.221 657.666 215.568 656.425 219.658 654.109C233.495 646.275 239.836 642.453 244.824 641.733C246.504 641.49 250.775 641.225 257.128 641.125C261.36 641.058 266.823 641.219 276.666 644.237C291.352 648.738 300.121 656.206 302.564 657.826C304.266 658.955 312.005 662.861 324.412 669.64C329.92 672.65 334.3 673.812 341.631 675.538C348.962 677.264 359.232 679.27 366.557 681.105C373.881 682.941 377.951 684.545 381.888 685.773C385.825 687 389.506 687.803 406.032 688.316C422.558 688.83 451.817 689.03 467.761 689.033C485.451 689.037 489.378 688.629 494.255 688.328C500.294 687.426 505.238 686.806 508.071 686.605C509.354 686.405 510.322 686.004 512.495 685.59" stroke="#70D9FF" stroke-width="2" stroke-linecap="round"/>
<path d="M443.797 689.237V702" stroke="#70D9FF" stroke-width="2" stroke-linecap="round"/>
<path d="M59.9824 567.451C61.2418 559.93 61.5189 556.459 62.3563 544.264C62.9207 536.047 64.1803 529.815 64.1111 526.415C64.0418 525.023 63.9033 524.306 63.5549 519.348C63.2064 514.391 62.3827 509.122 61.8118 499.667" stroke="#70D9FF" stroke-width="2" stroke-linecap="round"/>
</g>
<g filter="url(#filter1_f_1344_1949)">
<path d="M54.633 682.231C54.633 681.98 54.2193 680.441 53.5061 678.37C53.2212 677.543 53.0344 677.191 52.6352 675.134C52.2361 673.076 51.6154 669.329 50.7957 665.864C49.976 662.399 48.9761 659.33 48.2024 656.642C47.4286 653.955 46.9114 651.742 46.576 650.067C46.2406 648.392 46.1027 647.321 45.9799 645.645C45.8572 643.969 45.7537 641.721 45.6315 640.099C45.5092 638.477 45.3713 637.549 44.4899 634.448C43.6086 631.347 41.988 626.1 41.0669 622.952C40.1459 619.803 39.9735 618.911 39.764 617.077C39.5545 615.243 39.3131 612.495 39.0645 609.664" stroke="#FF8670" stroke-width="2" stroke-linecap="round"/>
<path d="M38.7478 609.448C38.7478 609.34 38.7478 609.233 38.6099 607.073C38.472 604.912 38.1962 600.701 38.0885 598.085C37.9809 595.47 38.0499 594.577 38.5336 591.298C39.0174 588.019 39.9139 582.38 40.3758 579.137C40.8376 575.893 40.8376 575.215 40.6135 574.151C40.3893 573.088 39.9411 571.661 39.6585 570.658C39.2285 569.132 39.2003 567.604 39.2698 566.037C39.2965 565.433 39.3392 565.22 39.1674 565.038C38.7238 564.569 37.1565 564.424 34.2267 564.1C32.3681 563.895 29.7452 563.706 27.9643 563.488C26.1833 563.271 25.3213 563.057 24.5496 562.821C23.109 562.382 21.9306 561.722 20.6987 560.682C19.9448 560.045 19.0876 558.999 18.4878 558.234C17.5405 557.027 17.0521 555.849 16.617 554.822C16.124 553.66 15.418 551.887 15.0476 549.797C14.9614 548.935 14.789 547.579 14.7001 546.755C14.6113 545.932 14.6113 545.682 14.6113 545.424" stroke="#FF8670" stroke-width="2" stroke-linecap="round"/>
<path d="M14.6113 544.667V545.207" stroke="#FF8670" stroke-width="2" stroke-linecap="round"/>
<path d="M15.3461 544.343C15.3461 544.129 15.3461 543.915 15.3461 542.948C15.3461 541.981 15.3461 540.268 15.5357 537.851C15.7254 535.434 16.1047 532.365 16.3001 530.266C16.5911 527.141 16.461 525.852 16.3398 525.367C15.9514 523.813 14.5123 522.717 13.3023 521.07C12.3176 519.73 10.5062 517.425 9.42742 516.105C8.09909 514.48 7.33924 513.886 6.64388 513.13C6.04749 512.482 5.63088 511.58 5.26569 510.465C4.88823 509.314 4.93186 507.798 5.27719 505.679C5.48653 504.395 5.34509 503.006 5.76774 501.982C6.43176 500.601 7.02477 499.49 7.30323 498.896C7.40929 498.659 8.03545 496.692 8.07098 496.581" stroke="#FF8670" stroke-width="2" stroke-linecap="round"/>
<path d="M6.53711 500.439C6.53711 500.225 7.47274 498.315 7.94241 497.02C8.30079 496.031 8.41521 494.462 8.55418 492.643C8.63098 491.638 8.79868 490.958 8.86816 490.292C8.91198 489.872 9.24902 488.943 9.99453 487.075C10.4323 485.979 11.1193 484.637 12.0258 483.028C12.9322 481.419 14.0701 479.599 14.9148 477.984C15.7596 476.368 16.2768 475.012 17.5777 472.529C18.8785 470.046 20.9474 466.477 22.3062 464.281C23.6651 462.086 24.2513 461.372 24.6912 460.683C25.1311 459.994 25.4069 459.352 25.8076 458.004C26.2083 456.656 26.7255 454.622 27.423 452.717C28.1204 450.813 28.9825 449.1 29.6851 447.271C30.3878 445.443 31.52 443.329 31.8727 441.801C32.2253 440.274 32.6033 439.803 32.6404 438.715C32.6775 437.628 32.7282 436.305 32.6404 435.629C32.5527 434.953 32.7115 434.38 32.6404 434.086" stroke="#FF8670" stroke-width="2" stroke-linecap="round"/>
<path d="M32.7949 436.196C32.7949 435.589 32.7949 434.982 32.8811 433.385C32.9673 431.787 33.1397 429.218 33.5389 427.038C33.938 424.857 34.5587 423.144 35.7921 419.086C37.0256 415.027 38.8531 408.674 39.829 404.777C40.8049 400.88 40.8739 399.631 40.8577 397.792C40.8415 395.953 40.738 393.562 40.8399 391.884C40.9418 390.206 41.2521 389.314 41.5844 388.497C41.9166 387.681 42.2615 386.967 43.1804 385.76C44.0994 384.554 45.5821 382.877 47.5354 381.156C49.4888 379.435 49.7702 379.453 51.0648 378.535C52.3594 377.617 53.226 374.751 53.3681 374.677" stroke="#FF8670" stroke-width="2" stroke-linecap="round"/>
<path d="M52.543 376.606C52.7499 376.392 53.3392 375.068 54.8291 371.927C55.7623 369.96 57.3536 367.394 58.6523 365.463C59.9511 363.532 60.9855 362.354 61.8287 361.516C62.6719 360.677 63.2926 360.213 64.5088 359.01C65.7251 357.808 67.5181 355.881 68.6831 354.513C69.8481 353.146 70.3309 352.396 71.476 350.029C72.6212 347.663 74.4142 343.701 75.9413 340.679C77.4684 337.657 78.6752 335.694 80.1934 333.88C81.7116 332.066 83.5046 330.46 85.1523 329.186C86.8001 327.913 88.2483 327.02 89.4943 326.097C90.7403 325.173 91.7403 324.245 92.6347 323.286C93.5291 322.326 94.2877 321.362 95.1784 320.455C96.0692 319.549 97.0691 318.728 97.8083 318.18C98.5476 317.632 98.9958 317.382 99.4577 317.125" stroke="#FF8670" stroke-width="2" stroke-linecap="round"/>
<path d="M99.3535 316.909C100.078 316.302 100.802 315.696 102.244 314.437C103.686 313.179 105.823 311.288 107.321 310.028C108.819 308.768 109.612 308.197 113.107 306.6C116.601 305.003 122.773 302.398 127.608 300.824C132.442 299.25 135.753 298.786 142.561 297.173C149.369 295.56 159.576 292.812 166.678 291.2C173.781 289.588 177.47 289.195 180.75 288.672C184.03 288.148 186.788 287.506 189.606 287.104C192.423 286.701 195.216 286.559 197.724 285.878C200.232 285.198 200.774 284.406 203.077 283.634" stroke="#FF8670" stroke-width="2" stroke-linecap="round"/>
<path d="M203.078 283.634C203.561 283.634 205.532 283.566 207.882 283.133C208.975 282.933 209.79 282.52 210.954 282.088C211.968 281.713 212.891 281.293 213.795 280.97C215.344 280.416 216.271 279.708 216.69 279.276C216.857 279.104 216.694 278.845 216.538 278.681C215.982 278.1 215.096 277.978 214.153 277.437C213.637 277.141 213.004 276.717 212.257 275.998C210.466 274.275 210.043 272.86 209.502 272.281C209.08 271.83 208.613 271.309 208.352 270.481C207.864 268.938 208.16 266.769 208.038 265.687C207.953 264.926 207.568 264.315 207.412 263.526C207.141 262.153 206.871 260.964 206.853 260.262C206.837 259.595 206.904 258.052 207.113 255.661C207.312 253.384 207.115 251.844 206.873 250.963C206.282 248.819 205.376 247.556 204.713 246.741C204.469 246.435 204.191 245.789 203.895 244.978C203.772 244.667 203.703 244.56 203.632 244.45" stroke="#FF8670" stroke-width="2" stroke-linecap="round"/>
<path d="M205.383 248.143C203.847 245.057 203.199 243.789 202.312 242.742C201.456 241.734 203.323 239.305 203.254 237.255C203.187 235.267 202.733 233.784 202.368 232.903C201.659 231.187 200.746 229.565 200.694 228.449C200.663 227.8 200.537 225.829 200.381 223.181C200.302 221.842 200.084 220.274 200.067 218.22C200.057 217.094 200.152 216.265 200.413 215.293C200.647 214.422 200.433 213.667 200.053 212.681C199.33 210.809 198.552 209.521 198.379 209.053C198.136 208.515 197.96 208.006 197.856 207.521C197.786 207.251 197.683 206.929 197.576 206.49" stroke="#FF8670" stroke-width="2" stroke-linecap="round"/>
<path d="M197.15 206.058C197.15 205.844 196.943 204.699 196.578 203.006C196.379 202.081 196.415 200.89 196.775 199.905C197.426 198.122 197.393 196.165 197.445 195.913C197.493 195.676 196.344 199.189 196.905 200.4C197 200.604 197.251 199.689 197.357 198.146C197.464 196.603 197.464 194.069 197.515 192.568C197.581 190.668 197.777 189.912 197.794 189.282C197.831 187.933 197.43 186.127 197.272 185.083C197.03 183.477 197.15 182.343 197.099 181.212C197.068 180.543 196.943 179.688 196.925 175.82C196.906 171.953 196.975 165.101 197.045 161.303C197.115 157.506 197.184 156.97 197.288 156.409C197.662 154.401 197.604 153.324 197.534 152.098C197.496 151.443 197.29 150.549 197.169 149.63C197.081 149.175 196.391 147.887 195.226 145.567C194.716 144.425 194.371 143.355 194.016 142.143" stroke="#FF8670" stroke-width="2" stroke-linecap="round"/>
<path d="M193.809 141.818C193.051 140.319 192.453 138.904 192.036 137.717C191.303 135.91 191.093 134.899 190.627 134.556C190.162 134.428 189.231 134.392 188.271 134.356" stroke="#FF8670" stroke-width="2" stroke-linecap="round"/>
<path d="M187.121 132.951C186.637 132.305 185.66 131.582 185.243 131.509C184.827 131.437 184.51 131.724 184.336 131.94C184.104 132.227 184.195 132.625 184.075 132.841C183.865 133.215 183.395 133.274 183.032 133.436C182.757 133.559 182.221 133.492 181.764 133.331C181.308 133.17 180.929 132.849 180.303 132.148C179.676 131.448 178.814 130.377 177.853 128.951C176.892 127.525 175.857 125.776 175.014 124.001C174.171 122.226 173.55 120.477 173.11 118.309C172.669 116.141 172.428 113.608 172.321 111.874C172.214 110.14 172.248 109.284 173.042 106.327C173.835 103.369 175.387 98.3372 176.273 93.9962C177.158 89.6551 177.331 86.1576 177.385 84.0525C177.476 80.5348 177.021 79.8894 176.553 79.2227C176.182 78.6956 175.77 78.0866 175.11 77.6724C174.345 77.1914 173.264 77.5058 172.222 78.0076C170.878 78.6553 169.782 80.3112 168.687 81.822C167.764 83.0947 167.513 84.2445 167.443 85.9992C167.389 87.3602 167.511 89.6811 167.529 91.0189C167.551 92.6421 167.236 93.3289 166.663 94.1914C165.918 95.1966 165.354 96.0337 165.145 96.5555C165.074 96.7918 165.074 96.9702 165.074 97.1541" stroke="#FF8670" stroke-width="2" stroke-linecap="round"/>
<path d="M346.359 5.0119C346.359 4.97621 346.359 4.94052 348.601 6.18908C350.842 7.43764 355.324 9.97154 357.858 11.4375C360.391 12.9034 360.839 13.2246 361.777 13.7291C362.715 14.2336 364.128 14.9117 365.322 15.4216C366.516 15.9315 367.447 16.2527 369.202 17.0784C370.958 17.9041 373.509 19.2246 375.306 20.3153C377.104 21.406 378.069 22.2268 379.791 24.5768C381.512 26.9269 383.96 30.7813 385.721 33.8018C387.482 36.8224 388.482 38.8923 389.411 41.4219C390.34 43.9514 391.168 46.8779 391.646 48.8137C392.124 50.7496 392.227 51.6061 392.677 53.8318C393.127 56.0575 393.92 59.6263 394.621 61.9288C395.323 64.2312 395.909 65.1591 396.384 66.0832C396.858 67.0074 397.203 67.8996 397.558 68.8188" stroke="#FF8670" stroke-width="2" stroke-linecap="round"/>
<path d="M396.936 67.5205C397.454 68.0201 397.971 68.5198 398.53 69.6159C399.09 70.7119 399.676 72.3893 400.288 74.7166C400.901 77.044 401.521 79.9704 401.806 82.9055C402.092 85.8407 402.023 88.6958 401.867 90.6484C401.71 92.601 401.469 93.5646 401.19 94.4714C400.651 96.217 399.935 97.6871 399.033 99.1601C398.511 100.014 397.718 100.99 397.069 101.969C396.419 102.947 395.902 103.875 395.325 104.871C394.748 105.866 394.128 106.901 393.488 107.968" stroke="#FF8670" stroke-width="2" stroke-linecap="round"/>
<path d="M393.273 108.076C393.273 108.005 392.756 109.396 391.904 111.844C391.55 112.858 391.43 113.436 391.066 114.604C390.702 115.773 390.116 117.522 389.762 118.672C389.408 119.823 389.305 120.323 388.562 122.24C387.819 124.157 386.44 127.476 384.161 134.235C381.881 140.995 378.743 151.095 377.093 157.369C375.442 163.642 375.373 165.784 375.389 167.261C375.405 168.739 375.509 169.489 375.545 171.017C375.581 172.545 375.546 174.829 375.425 176.398C375.304 177.967 375.097 178.753 374.732 179.567C374.367 180.382 373.849 181.203 373.316 182.157" stroke="#FF8670" stroke-width="2" stroke-linecap="round"/>
<path d="M373.842 181.833C373.359 184.973 372.524 187.448 371.515 188.835C370.941 189.624 370.396 189.942 369.686 190.801C369.165 191.432 368.389 192.518 367.774 193.266C367.159 194.013 366.745 194.406 365.583 196.286C364.422 198.165 362.526 201.52 360.928 204.836C359.33 208.153 358.089 211.329 357.191 214.107C356.293 216.885 355.776 219.17 355.182 222.666C354.588 226.162 353.933 230.802 353.319 234.138C352.706 237.473 352.154 239.365 351.594 242.588C351.034 245.811 350.482 250.307 349.914 255.157" stroke="#FF8670" stroke-width="2" stroke-linecap="round"/>
<path d="M349.807 255.698C349.807 255.841 349.807 255.983 349.738 257.574C349.669 259.164 349.531 262.197 349.512 264.206C349.493 266.215 349.596 267.107 349.753 267.906C350.046 269.399 350.468 270.295 350.746 270.852C351.125 271.612 351.235 272.779 351.322 274.483C351.376 275.545 351.306 277.009 351.219 278.156C351.132 279.302 350.994 280.087 351.078 283.882C351.162 287.677 351.473 294.458 351.822 298.504C352.172 302.55 352.551 303.657 353.126 304.726C353.7 305.796 354.459 306.795 355.057 307.703C355.654 308.61 356.068 309.395 356.54 310.067C357.012 310.739 357.529 311.275 358.347 312.389C359.165 313.504 360.269 315.181 361.044 316.295C361.819 317.409 362.233 317.908 362.929 318.487C364.59 319.708 365.93 321.048 366.504 322.147C366.733 322.567 366.837 322.71 366.943 322.965" stroke="#FF8670" stroke-width="2" stroke-linecap="round"/>
<path d="M366.215 321.992C366.56 322.527 366.904 323.062 368.444 324.712C369.984 326.362 372.708 329.11 378.49 332.881C384.272 336.652 393.03 341.363 400.99 345.093C408.95 348.822 415.846 351.427 423.985 353.947C432.123 356.467 441.295 358.822 446.434 360.196C451.572 361.57 452.4 361.892 453.171 362.146C453.942 362.401 454.632 362.579 455.487 362.868C456.342 363.156 457.481 363.263 458.737 363.875C459.993 364.488 461.711 365.128 463.344 366.19" stroke="#FF8670" stroke-width="2" stroke-linecap="round"/>
<path d="M461.926 365.574C462.271 365.574 463.517 366.324 465.775 368.441C467.092 369.676 468.239 371.771 470.586 374.852C472.932 377.933 476.312 382.073 478.294 384.438C480.276 386.802 480.759 387.266 481.455 387.755C482.993 388.834 484.559 389.687 485.757 390.621C486.383 391.109 486.99 391.698 487.637 392.474C488.285 393.25 488.94 394.214 490.657 397.405C492.373 400.596 495.132 405.985 498.415 414.257C501.698 422.529 506.039 432.769 509.98 444.31" stroke="#FF8670" stroke-width="2" stroke-linecap="round"/>
<path d="M509.673 443.874C509.673 443.838 509.673 443.803 510.069 444.302C510.466 444.801 511.259 445.836 512.202 448.742C513.145 451.649 514.214 456.395 514.937 460.536C515.66 464.676 516.005 468.067 516.182 471.08C516.36 474.094 516.36 476.628 516.274 478.754C516.188 480.88 516.015 482.522 515.151 487.293C514.286 492.065 512.734 499.916 511.676 504.835C510.618 509.754 510.101 511.503 509.568 513.305" stroke="#FF8670" stroke-width="2" stroke-linecap="round"/>
<path d="M510.407 512.547C510.407 512.618 510.407 512.69 510.217 517.705C510.027 522.721 509.648 532.678 509.522 538.271C509.395 543.864 509.533 544.792 509.828 545.663C510.123 546.534 510.572 547.319 510.906 547.991C511.24 548.663 511.447 549.198 511.606 550.812C511.764 552.426 511.867 555.103 511.99 556.696C512.112 558.289 512.25 558.717 512.666 559.473C513.696 561.346 514.654 562.831 514.915 563.784C515.004 564.308 515.004 564.914 514.935 565.887C514.866 566.86 514.728 568.18 514.586 569.757" stroke="#FF8670" stroke-width="2" stroke-linecap="round"/>
<path d="M516.047 566.837C516.047 566.766 516.151 568.156 516.342 570.516C516.45 571.845 516.845 572.923 517.436 574.271C518.026 575.619 518.795 576.746 519.421 577.859C520.111 579.088 520.088 580.708 519.984 582.058C519.914 582.96 519.635 583.704 519.514 585.102C519.429 586.07 519.426 587.571 519.357 588.611C519.251 590.192 518.905 591.237 518.454 592.94C518.138 594.133 517.796 596.035 516.48 600.721C515.164 605.407 512.923 612.83 511.596 617.011C510.269 621.192 509.924 621.906 509.557 622.844C509.19 623.783 508.81 624.925 507.77 628.761C506.73 632.597 505.041 639.092 504.136 642.51C503.231 645.927 503.162 646.07 503.092 646.286C503.022 646.503 502.953 646.788 502.777 647.299" stroke="#FF8670" stroke-width="2" stroke-linecap="round"/>
<path d="M506.218 636.278C506.218 636.21 506.053 636.757 505.769 637.897C505.506 638.95 505.516 640.114 505.351 641.511C505.257 642.304 504.854 643.217 504.352 644.242C503.851 645.267 503.189 646.363 502.831 647.014C502.473 647.664 502.44 647.836 502.39 649.123C502.34 650.411 502.274 652.809 502.19 654.251C502.106 655.692 502.007 656.103 501.558 657.24C501.11 658.377 500.315 660.228 499.873 661.318C499.431 662.408 499.364 662.682 498.734 664.485C498.104 666.289 496.912 669.612 496.149 671.582C495.386 673.551 495.089 674.065 494.803 674.724C494.517 675.383 494.252 676.171 493.685 677.639C493.118 679.107 492.257 681.232 491.715 682.498C490.771 684.698 489.705 685.527 488.815 686.533C488.663 686.708 488.563 686.777 488.463 686.864C488.362 686.95 488.262 687.053 488.16 687.263" stroke="#FF8670" stroke-width="2" stroke-linecap="round"/>
<path d="M190.36 133.578C189.842 132.372 189.251 130.677 188.631 127.611C188.232 125.636 188.075 122.734 187.489 120.344C186.424 116.006 184.802 113.475 184.02 111.384C183.534 110.083 182.721 108.355 181.964 105.413C181.208 102.47 180.495 98.3806 180.064 95.1343C179.632 91.888 179.502 89.6086 179.824 86.859C180.146 84.1094 180.923 80.9585 181.486 79.0001C182.048 77.0418 182.372 76.3714 182.705 75.6807" stroke="#FF8670" stroke-width="2" stroke-linecap="round"/>
<path d="M182.9 75.2748C182.771 71.9228 182.641 68.5708 182.704 65.2016C182.767 61.8323 183.026 58.5474 183.289 56.2518C183.692 52.7327 184.596 49.9643 185.77 46.9577C186.354 45.461 187.202 44.1522 188.218 42.7576C189.234 41.363 190.465 39.9551 192.038 38.3919C193.611 36.8287 195.489 35.1527 199.695 32.1105C203.901 29.0683 210.379 24.7108 218.476 20.7229C226.573 16.7351 236.094 13.249 243.687 10.8834C251.28 8.51769 256.656 7.37802 272.768 6.35516C288.88 5.3323 318.384 6.00388 345.878 5.10596" stroke="#FF8670" stroke-width="2" stroke-linecap="round"/>
<path d="M331.441 203.146C332.226 203.865 334.254 206.15 337.05 206.56C339.39 206.903 343.68 206.699 346.708 206.519C351.413 206.239 353.446 205.426 354.454 204.837C356.112 203.867 358.279 201.973 360.912 199.114C363.894 195.262 366.033 191.769 367 189.54C367.443 188.574 367.792 187.942 368.151 187.292" stroke="#FF8670" stroke-width="2" stroke-linecap="round"/>
<path d="M366.565 188.931C367.785 188.21 369.372 186.214 371.043 182.717C371.905 180.912 372.19 178.768 372.458 175.128C372.726 171.489 372.813 166.347 372.684 163.202C372.441 157.288 370.268 154.866 368.991 152.447C368.505 151.526 367.627 150.668 366.529 149.757C364.474 148.053 361.732 148.749 357.741 148.295C352.661 147.717 348.788 148.563 347.69 149.29C345.97 150.75 343.863 152.565 342.148 154.43C341.478 155.214 341.217 155.665 340.947 156.403" stroke="#FF8670" stroke-width="2" stroke-linecap="round"/>
<path d="M324.307 216.267C323.785 218.251 322.818 221.529 321.587 225.307C320.839 227.602 320.675 228.904 319.007 230.398C316.393 232.739 314.977 235.489 314.235 237.389C313.626 238.948 312.36 241.634 311.165 243.975C308.965 248.284 306.885 251.155 305.435 252.883C302.987 255.803 299.226 257.084 295.336 259.254C292.198 261.004 286.827 264.311 280.426 267.292C274.026 270.273 266.792 272.889 262.935 274.326C258.79 275.872 257.85 276.311 256.14 276.675C253.841 277.163 250.468 277.224 246.254 277.314C241.686 277.412 239.006 277.861 238.044 278.043C234.464 278.719 231.625 279.044 227.461 279.318C224.866 279.411 221.293 279.411 219.278 279.366C217.263 279.321 216.914 279.23 216.291 279.137" stroke="#FF8670" stroke-width="2" stroke-linecap="round"/>
<path d="M393.478 107.722C387.837 111.717 380.407 113.715 375.704 116.967C372.969 118.858 368.773 119.913 362.7 120.855C356.627 121.798 348.61 122.259 343.441 122.343C338.271 122.427 336.193 122.12 332.227 121.808C328.262 121.496 322.472 121.188 318.079 120.569C310.78 119.54 305.435 116.388 297.528 111.906C292.247 108.913 283.98 105.273 277.175 100.989C270.371 96.705 265.175 92.0951 261.087 89.4898C257 86.8846 254.18 86.4236 252.355 86.1861C250.531 85.9486 249.789 85.9486 248.515 87.1779C241.985 93.4839 241.529 97.8877 240.555 100.914C240.284 101.757 240.179 102.693 240.622 103.322C241.646 104.774 243.621 105.035 244.37 106.118C244.762 106.684 244.822 107.508 244.75 108.134C244.618 109.278 240.957 112.001 236.531 115.801C234.868 117.228 237.169 118.851 237.478 120.162C237.043 121.165 235.41 122.855 235.015 124.033C234.619 125.212 235.509 125.826 236.427 126.459" stroke="#FF8670" stroke-width="2" stroke-linecap="round"/>
<path d="M247.678 85.483C246.338 85.6366 241.857 87.7925 238.915 90.0556C235.945 92.3392 230.313 91.5363 223.416 89.6877C217.084 87.9906 213.942 83.9324 212.896 84.0069C208.397 84.3273 203.176 95.3639 201.563 99.2916C201.248 100.06 204.768 100.225 208.437 100.844C210.035 101.114 211.067 101.464 209.821 103.236C208.574 105.007 205.011 108.234 203.399 109.973C201.786 111.713 202.231 111.866 203.277 111.945C204.323 112.025 205.956 112.025 205.907 112.101C204.884 113.69 201.349 113.258 199.629 114.576C198.2 115.67 194.174 108.989 188.708 100.204C186.359 98.181 184.875 101.101 183.813 103.373C182.751 105.645 182.157 107.182 181.096 109.231" stroke="#FF8670" stroke-width="2" stroke-linecap="round"/>
<path d="M233.728 94.7959C228.978 97.2545 225.64 100.519 224.735 103.776C224.216 105.646 226.976 106.586 226.982 108.67C226.996 112.867 223.386 117.123 223.379 121C225.154 123.34 226.53 124.9 226.308 126.602C226.085 127.535 225.64 128.611 224.731 129.719" stroke="#FF8670" stroke-width="2" stroke-linecap="round"/>
<path d="M222.479 282.916C222.479 282.609 224.854 284.909 229.863 289.633C234.916 294.398 239.264 296.415 241.729 297.805C245.162 299.74 250.929 303.693 259.083 308.182C263.137 310.413 266.792 312.978 274.271 316.473C281.75 319.967 292.885 324.424 299.363 326.873C305.842 329.322 307.326 329.63 315.663 329.942C323.999 330.254 339.142 330.561 347.537 330.565C359.382 329.485 361.712 327.942 365.84 324.526C366.674 323.895 366.916 323.913 367.375 323.755" stroke="#FF8670" stroke-width="2" stroke-linecap="round"/>
<path d="M426.768 506.307C426.768 505.906 426.381 509.309 425.6 518.589C424.483 531.855 424.032 542.139 422.67 546.889C420.165 555.623 416.598 559.557 415.809 568.865C415.999 574.119 416.78 578.209 417.661 580.737C417.961 581.861 417.961 582.664 418.548 584.706" stroke="#FF8670" stroke-width="2" stroke-linecap="round"/>
<path d="M514.849 584.099C513.1 572.801 509.964 562.433 508.499 560.813C506.15 558.217 495.931 559.181 484.164 561.397C481.108 561.972 478.116 563.812 471.093 565.939C464.071 568.067 453.22 570.874 446.758 572.822C435.293 576.278 428.97 582.434 424.827 585.311C424.043 585.515 423.074 585.715 421.8 585.819C420.526 585.922 418.976 585.922 417.379 585.922" stroke="#FF8670" stroke-width="2" stroke-linecap="round"/>
<path d="M422.073 585.921C420.522 585.921 411.973 585.921 399.745 586.021C395.267 586.058 394.299 586.322 388.859 586.526C383.419 586.729 373.537 586.93 366.315 586.933C349.265 586.94 344.977 585.921 340.961 585.116C336.474 584.216 333.234 582.08 328.73 581.162C326.429 580.694 321.895 580.457 316.032 579.546C311.757 578.881 302.754 576.228 291.019 571.569C286.504 569.777 284.71 569.719 277.514 569.716C270.318 569.713 257.723 569.913 250.654 569.816C239.742 569.666 233.238 565.27 228.027 563.945C224.653 563.087 219.722 562.219 213.26 564.942C207.769 567.255 199.394 567.081 187.976 565.677C181.984 564.273 175.59 561.466 168.324 560.019C161.057 558.573 153.113 558.573 144.928 558.573" stroke="#FF8670" stroke-width="2" stroke-linecap="round"/>
<path d="M149.04 693.492C149.04 689.675 146.327 676.743 143.08 669.811C141.346 666.109 139.463 656.894 137.408 645.86C136.021 638.415 133.398 633.97 131.528 628.078C130.008 623.29 128.301 618.351 125.952 610.465C125.134 607.716 126.134 604.981 127.596 601.848C131.267 593.983 142.358 590.601 147.261 587.25C148.402 586.47 149.604 585.934 150.106 585.323C150.891 584.368 150.214 582.488 150.602 580.568C150.989 579.65 151.764 578.848 153.908 577.632C156.051 576.417 159.539 574.812 163.719 572.552" stroke="#FF8670" stroke-width="2" stroke-linecap="round"/>
<path d="M137.291 587.744C138.647 583.52 142.176 573.803 145.109 562.766C145.705 560.408 145.899 559.205 146.193 558.083C146.486 556.962 146.632 553.165 147.032 552.132" stroke="#FF8670" stroke-width="2" stroke-linecap="round"/>
<path d="M147.031 552.132C147.031 551.731 147.662 548.272 148.249 542.009C148.871 535.373 149.03 526.217 149.911 512.294C150.435 503.998 150.21 493.156 150.113 486.975C150.016 480.794 149.822 479.591 149.723 476.665C149.623 473.739 149.623 469.126 149.623 464.373" stroke="#FF8670" stroke-width="2" stroke-linecap="round"/>
<path d="M7.52734 507.523C10.6335 506.119 16.9103 502.867 21.4961 501.956C31.3188 500.003 41.5128 499.622 49.5776 499.118C56.1691 498.705 62.1167 499.817 65.3402 501.433C71.1929 504.368 76.0033 510.744 80.7124 513.39C87.4254 517.163 100.477 513.807 107.126 513.7C109.117 513.669 112.214 515.812 116.903 518.945C120.962 521.657 127.457 525.931 135.281 530.383C142.166 535.868 145.442 536.58 147.8 539.017C148.196 539.825 147.6 542.406 147.8 543.646" stroke="#FF8670" stroke-width="2" stroke-linecap="round"/>
<path d="M147.275 673.436C150.963 673.436 163.07 669.826 169.083 665.243C173.351 661.99 179.734 659.676 186.196 658.549C191.258 657.666 195.605 656.425 199.695 654.109C213.532 646.275 219.873 642.453 224.861 641.733C226.541 641.49 230.812 641.225 237.165 641.125C241.397 641.058 246.86 641.219 256.704 644.237C271.389 648.738 280.158 656.206 282.601 657.826C284.303 658.955 292.042 662.861 304.449 669.64C309.958 672.65 314.337 673.812 321.668 675.538C328.999 677.264 339.269 679.27 346.594 681.105C353.919 682.941 357.988 684.545 361.925 685.773C365.862 687 369.543 687.803 386.069 688.316C402.595 688.83 431.854 689.03 447.798 689.033C465.488 689.037 469.415 688.629 474.292 688.328C480.331 687.426 485.275 686.806 488.108 686.605C489.391 686.405 490.36 686.004 492.532 685.59" stroke="#FF8670" stroke-width="2" stroke-linecap="round"/>
<path d="M423.836 689.237V702" stroke="#FF8670" stroke-width="2" stroke-linecap="round"/>
<path d="M40.0234 567.451C41.2828 559.93 41.5599 556.459 42.3974 544.264C42.9617 536.047 44.2214 529.815 44.1521 526.415C44.0828 525.023 43.9443 524.306 43.5959 519.348C43.2474 514.391 42.4237 509.122 41.8528 499.667" stroke="#FF8670" stroke-width="2" stroke-linecap="round"/>
</g>
<path d="M63.8479 682.231C63.8479 681.98 63.4341 680.441 62.721 678.37C62.4361 677.543 62.2492 677.191 61.8501 675.134C61.4509 673.076 60.8303 669.329 60.0106 665.864C59.1909 662.399 58.1909 659.33 57.4172 656.642C56.6435 653.955 56.1263 651.742 55.7909 650.067C55.4555 648.392 55.3175 647.321 55.1948 645.645C55.072 643.969 54.9686 641.721 54.8463 640.099C54.7241 638.477 54.5861 637.549 53.7048 634.448C52.8234 631.347 51.2028 626.1 50.2818 622.952C49.3607 619.803 49.1883 618.911 48.9788 617.077C48.7693 615.243 48.528 612.495 48.2793 609.664" stroke="white" stroke-width="2" stroke-linecap="round"/>
<path d="M47.9607 609.448C47.9607 609.34 47.9607 609.233 47.8228 607.073C47.6849 604.912 47.409 600.701 47.3014 598.085C47.1938 595.47 47.2628 594.577 47.7465 591.298C48.2303 588.019 49.1268 582.38 49.5886 579.137C50.0505 575.893 50.0505 575.215 49.8264 574.151C49.6022 573.088 49.154 571.661 48.8713 570.658C48.4414 569.132 48.4132 567.604 48.4827 566.037C48.5094 565.433 48.5521 565.22 48.3803 565.038C47.9366 564.569 46.3694 564.424 43.4396 564.1C41.581 563.895 38.9581 563.706 37.1771 563.488C35.3962 563.271 34.5341 563.057 33.7625 562.821C32.3219 562.382 31.1435 561.722 29.9116 560.682C29.1577 560.045 28.3004 558.999 27.7007 558.234C26.7534 557.027 26.265 555.849 25.8298 554.822C25.3369 553.66 24.6309 551.887 24.2605 549.797C24.1743 548.935 24.0018 547.579 23.913 546.755C23.8242 545.932 23.8242 545.682 23.8242 545.424" stroke="white" stroke-width="2" stroke-linecap="round"/>
<path d="M23.8242 544.667V545.207" stroke="white" stroke-width="2" stroke-linecap="round"/>
<path d="M24.559 544.343C24.559 544.129 24.559 543.915 24.559 542.948C24.559 541.981 24.559 540.268 24.7486 537.851C24.9383 535.434 25.3176 532.365 25.5129 530.266C25.804 527.141 25.6739 525.852 25.5526 525.367C25.1643 523.813 23.7252 522.717 22.5152 521.07C21.5305 519.73 19.7191 517.425 18.6403 516.105C17.312 514.48 16.5521 513.886 15.8568 513.13C15.2604 512.482 14.8438 511.58 14.4786 510.465C14.1011 509.314 14.1447 507.798 14.4901 505.679C14.6994 504.395 14.558 503.006 14.9806 501.982C15.6447 500.601 16.2377 499.49 16.5161 498.896C16.6222 498.659 17.2483 496.692 17.2839 496.581" stroke="white" stroke-width="2" stroke-linecap="round"/>
<path d="M15.748 500.439C15.748 500.225 16.6837 498.315 17.1533 497.02C17.5117 496.031 17.6261 494.462 17.7651 492.643C17.8419 491.638 18.0096 490.958 18.0791 490.292C18.1229 489.872 18.46 488.943 19.2055 487.075C19.6433 485.979 20.3303 484.637 21.2367 483.028C22.1431 481.419 23.281 479.599 24.1258 477.984C24.9705 476.368 25.4878 475.012 26.7886 472.529C28.0895 470.046 30.1583 466.477 31.5172 464.281C32.876 462.086 33.4622 461.372 33.9021 460.683C34.342 459.994 34.6178 459.352 35.0185 458.004C35.4193 456.656 35.9365 454.622 36.6339 452.717C37.3314 450.813 38.1934 449.1 38.8961 447.271C39.5987 445.443 40.731 443.329 41.0836 441.801C41.4363 440.274 41.8143 439.803 41.8514 438.715C41.8885 437.628 41.9391 436.305 41.8514 435.629C41.7636 434.953 41.9224 434.38 41.8514 434.086" stroke="white" stroke-width="2" stroke-linecap="round"/>
<path d="M42.0078 436.196C42.0078 435.589 42.0078 434.982 42.094 433.385C42.1802 431.787 42.3526 429.218 42.7518 427.038C43.1509 424.857 43.7716 423.144 45.005 419.086C46.2385 415.027 48.066 408.674 49.0419 404.777C50.0178 400.88 50.0868 399.631 50.0706 397.792C50.0544 395.953 49.9509 393.562 50.0528 391.884C50.1547 390.206 50.465 389.314 50.7973 388.497C51.1295 387.681 51.4743 386.967 52.3933 385.76C53.3123 384.554 54.7949 382.877 56.7483 381.156C58.7017 379.435 58.9831 379.453 60.2777 378.535C61.5723 377.617 62.4389 374.751 62.581 374.677" stroke="white" stroke-width="2" stroke-linecap="round"/>
<path d="M61.7559 376.606C61.9627 376.392 62.5521 375.068 64.042 371.927C64.9752 369.96 66.5664 367.394 67.8652 365.463C69.164 363.532 70.1984 362.354 71.0416 361.516C71.8848 360.677 72.5055 360.213 73.7217 359.01C74.938 357.808 76.7309 355.881 77.896 354.513C79.061 353.146 79.5437 352.396 80.6889 350.029C81.8341 347.663 83.6271 343.701 85.1542 340.679C86.6813 337.657 87.8881 335.694 89.4063 333.88C90.9245 332.066 92.7175 330.46 94.3652 329.186C96.013 327.913 97.4612 327.02 98.7072 326.097C99.9532 325.173 100.953 324.245 101.848 323.286C102.742 322.326 103.501 321.362 104.391 320.455C105.282 319.549 106.282 318.728 107.021 318.18C107.76 317.632 108.209 317.382 108.671 317.125" stroke="white" stroke-width="2" stroke-linecap="round"/>
<path d="M108.566 316.909C109.291 316.302 110.015 315.696 111.457 314.437C112.898 313.179 115.036 311.288 116.534 310.028C118.032 308.768 118.825 308.197 122.32 306.6C125.814 305.003 131.986 302.398 136.821 300.824C141.655 299.25 144.966 298.786 151.774 297.173C158.582 295.56 168.789 292.812 175.891 291.2C182.994 289.588 186.683 289.195 189.963 288.672C193.243 288.148 196.001 287.506 198.819 287.104C201.636 286.701 204.429 286.559 206.937 285.878C209.445 285.198 209.987 284.406 212.29 283.634" stroke="white" stroke-width="2" stroke-linecap="round"/>
<path d="M212.291 283.634C212.774 283.634 214.745 283.566 217.095 283.133C218.188 282.933 219.003 282.52 220.167 282.088C221.181 281.713 222.104 281.293 223.008 280.97C224.557 280.416 225.484 279.708 225.903 279.276C226.07 279.104 225.907 278.845 225.751 278.681C225.194 278.1 224.309 277.978 223.366 277.437C222.85 277.141 222.217 276.717 221.47 275.998C219.679 274.275 219.256 272.86 218.715 272.281C218.293 271.83 217.826 271.309 217.565 270.481C217.077 268.938 217.373 266.769 217.251 265.687C217.166 264.926 216.78 264.315 216.625 263.526C216.354 262.153 216.083 260.964 216.066 260.262C216.05 259.595 216.117 258.052 216.326 255.661C216.525 253.384 216.328 251.844 216.086 250.963C215.495 248.819 214.589 247.556 213.926 246.741C213.682 246.435 213.403 245.789 213.108 244.978C212.984 244.667 212.915 244.56 212.844 244.45" stroke="white" stroke-width="2" stroke-linecap="round"/>
<path d="M214.594 248.143C213.058 245.057 212.41 243.789 211.523 242.742C210.667 241.734 212.534 239.305 212.465 237.255C212.398 235.267 211.944 233.784 211.579 232.903C210.87 231.187 209.957 229.565 209.904 228.449C209.874 227.8 209.748 225.829 209.592 223.181C209.513 221.842 209.295 220.274 209.278 218.22C209.268 217.094 209.363 216.265 209.624 215.293C209.858 214.422 209.644 213.667 209.263 212.681C208.541 210.809 207.763 209.521 207.59 209.053C207.347 208.515 207.171 208.006 207.067 207.521C206.997 207.251 206.894 206.929 206.787 206.49" stroke="white" stroke-width="2" stroke-linecap="round"/>
<path d="M206.363 206.058C206.363 205.844 206.156 204.699 205.791 203.006C205.592 202.081 205.628 200.89 205.988 199.905C206.639 198.122 206.606 196.165 206.658 195.913C206.706 195.676 205.556 199.189 206.118 200.4C206.212 200.604 206.463 199.689 206.57 198.146C206.677 196.603 206.677 194.069 206.728 192.568C206.794 190.668 206.99 189.912 207.007 189.282C207.044 187.933 206.643 186.127 206.485 185.083C206.243 183.477 206.363 182.343 206.311 181.212C206.281 180.543 206.156 179.688 206.137 175.82C206.119 171.953 206.188 165.101 206.258 161.303C206.328 157.506 206.397 156.97 206.501 156.409C206.875 154.401 206.817 153.324 206.747 152.098C206.709 151.443 206.503 150.549 206.381 149.63C206.294 149.175 205.604 147.887 204.438 145.567C203.929 144.425 203.584 143.355 203.229 142.143" stroke="white" stroke-width="2" stroke-linecap="round"/>
<path d="M203.024 141.818C202.266 140.319 201.668 138.904 201.251 137.717C200.517 135.91 200.307 134.899 199.842 134.556C199.376 134.428 198.446 134.392 197.486 134.356" stroke="white" stroke-width="2" stroke-linecap="round"/>
<path d="M196.334 132.951C195.85 132.305 194.873 131.582 194.456 131.509C194.04 131.437 193.723 131.724 193.549 131.94C193.317 132.227 193.408 132.625 193.288 132.841C193.078 133.215 192.608 133.274 192.245 133.436C191.97 133.559 191.433 133.492 190.977 133.331C190.521 133.17 190.142 132.849 189.516 132.148C188.889 131.448 188.027 130.377 187.066 128.951C186.105 127.525 185.07 125.776 184.227 124.001C183.384 122.226 182.763 120.477 182.323 118.309C181.882 116.141 181.641 113.608 181.534 111.874C181.427 110.14 181.461 109.284 182.255 106.327C183.048 103.369 184.6 98.3372 185.486 93.9962C186.371 89.6551 186.543 86.1576 186.598 84.0525C186.689 80.5348 186.234 79.8894 185.766 79.2227C185.395 78.6956 184.982 78.0866 184.323 77.6724C183.557 77.1914 182.477 77.5058 181.435 78.0076C180.091 78.6553 178.995 80.3112 177.9 81.822C176.977 83.0947 176.726 84.2445 176.656 85.9992C176.602 87.3602 176.724 89.6811 176.742 91.0189C176.764 92.6421 176.449 93.3289 175.876 94.1914C175.131 95.1966 174.567 96.0337 174.358 96.5555C174.287 96.7918 174.287 96.9702 174.287 97.1541" stroke="white" stroke-width="2" stroke-linecap="round"/>
<path d="M355.57 5.0119C355.57 4.97621 355.57 4.94052 357.812 6.18908C360.053 7.43764 364.535 9.97154 367.069 11.4375C369.602 12.9034 370.05 13.2246 370.988 13.7291C371.926 14.2336 373.339 14.9117 374.533 15.4216C375.727 15.9315 376.658 16.2527 378.413 17.0784C380.169 17.9041 382.72 19.2246 384.517 20.3153C386.315 21.406 387.28 22.2268 389.001 24.5768C390.723 26.9269 393.171 30.7813 394.932 33.8018C396.693 36.8224 397.693 38.8923 398.622 41.4219C399.551 43.9514 400.379 46.8779 400.857 48.8137C401.335 50.7496 401.438 51.6061 401.888 53.8318C402.338 56.0575 403.131 59.6263 403.832 61.9288C404.534 64.2312 405.12 65.1591 405.595 66.0832C406.069 67.0074 406.414 67.8996 406.769 68.8188" stroke="white" stroke-width="2" stroke-linecap="round"/>
<path d="M406.149 67.5205C406.666 68.0201 407.184 68.5198 407.743 69.6159C408.303 70.7119 408.889 72.3893 409.501 74.7166C410.113 77.044 410.734 79.9704 411.019 82.9055C411.305 85.8407 411.236 88.6958 411.079 90.6484C410.923 92.601 410.682 93.5646 410.402 94.4714C409.864 96.217 409.148 97.6871 408.246 99.1601C407.724 100.014 406.931 100.99 406.281 101.969C405.632 102.947 405.115 103.875 404.538 104.871C403.961 105.866 403.341 106.901 402.701 107.968" stroke="white" stroke-width="2" stroke-linecap="round"/>
<path d="M402.486 108.076C402.486 108.005 401.969 109.396 401.117 111.844C400.763 112.858 400.643 113.436 400.279 114.604C399.915 115.773 399.329 117.522 398.975 118.672C398.621 119.823 398.518 120.323 397.775 122.24C397.032 124.157 395.653 127.476 393.373 134.235C391.094 140.995 387.956 151.095 386.305 157.369C384.655 163.642 384.586 165.784 384.602 167.261C384.618 168.739 384.721 169.489 384.757 171.017C384.794 172.545 384.759 174.829 384.638 176.398C384.517 177.967 384.31 178.753 383.945 179.567C383.579 180.382 383.062 181.203 382.529 182.157" stroke="white" stroke-width="2" stroke-linecap="round"/>
<path d="M383.056 181.833C382.574 184.973 381.739 187.448 380.73 188.835C380.156 189.624 379.61 189.942 378.9 190.801C378.38 191.432 377.604 192.518 376.989 193.266C376.373 194.013 375.96 194.406 374.798 196.286C373.637 198.165 371.74 201.52 370.143 204.836C368.545 208.153 367.304 211.329 366.406 214.107C365.508 216.885 364.991 219.17 364.397 222.666C363.803 226.162 363.147 230.802 362.534 234.138C361.921 237.473 361.369 239.365 360.809 242.588C360.249 245.811 359.697 250.307 359.129 255.157" stroke="white" stroke-width="2" stroke-linecap="round"/>
<path d="M359.022 255.698C359.022 255.841 359.022 255.983 358.953 257.574C358.884 259.164 358.746 262.197 358.727 264.206C358.708 266.215 358.811 267.107 358.968 267.906C359.261 269.399 359.682 270.295 359.96 270.852C360.34 271.612 360.449 272.779 360.537 274.483C360.591 275.545 360.52 277.009 360.434 278.156C360.347 279.302 360.209 280.087 360.293 283.882C360.377 287.677 360.688 294.458 361.037 298.504C361.387 302.55 361.766 303.657 362.341 304.726C362.915 305.796 363.674 306.795 364.272 307.703C364.869 308.61 365.283 309.395 365.755 310.067C366.226 310.739 366.744 311.275 367.562 312.389C368.38 313.504 369.483 315.181 370.259 316.295C371.034 317.409 371.448 317.908 372.144 318.487C373.805 319.708 375.144 321.048 375.719 322.147C375.948 322.567 376.051 322.71 376.158 322.965" stroke="white" stroke-width="2" stroke-linecap="round"/>
<path d="M375.428 321.992C375.773 322.527 376.117 323.062 377.657 324.712C379.197 326.362 381.921 329.11 387.703 332.881C393.485 336.652 402.243 341.363 410.203 345.093C418.163 348.822 425.059 351.427 433.198 353.947C441.336 356.467 450.508 358.822 455.647 360.196C460.785 361.57 461.613 361.892 462.384 362.146C463.155 362.401 463.845 362.579 464.7 362.868C465.555 363.156 466.693 363.263 467.95 363.875C469.206 364.488 470.924 365.128 472.556 366.19" stroke="white" stroke-width="2" stroke-linecap="round"/>
<path d="M471.139 365.574C471.483 365.574 472.73 366.324 474.987 368.441C476.304 369.676 477.452 371.771 479.799 374.852C482.145 377.933 485.524 382.073 487.507 384.438C489.489 386.802 489.971 387.266 490.668 387.755C492.206 388.834 493.772 389.687 494.97 390.621C495.596 391.109 496.203 391.698 496.85 392.474C497.498 393.25 498.153 394.214 499.869 397.405C501.586 400.596 504.345 405.985 507.628 414.257C510.911 422.529 515.252 432.769 519.193 444.31" stroke="white" stroke-width="2" stroke-linecap="round"/>
<path d="M518.886 443.874C518.886 443.838 518.886 443.803 519.282 444.302C519.679 444.801 520.472 445.836 521.415 448.742C522.358 451.649 523.427 456.395 524.15 460.536C524.873 464.676 525.218 468.067 525.395 471.08C525.573 474.094 525.573 476.628 525.487 478.754C525.401 480.88 525.228 482.522 524.363 487.293C523.499 492.065 521.947 499.916 520.889 504.835C519.831 509.754 519.314 511.503 518.781 513.305" stroke="white" stroke-width="2" stroke-linecap="round"/>
<path d="M519.619 512.547C519.619 512.618 519.619 512.69 519.43 517.705C519.24 522.721 518.861 532.678 518.734 538.271C518.608 543.864 518.746 544.792 519.041 545.663C519.336 546.534 519.785 547.319 520.119 547.991C520.453 548.663 520.66 549.198 520.818 550.812C520.977 552.426 521.08 555.103 521.202 556.696C521.325 558.289 521.463 558.717 521.878 559.473C522.909 561.346 523.867 562.831 524.128 563.784C524.217 564.308 524.217 564.914 524.148 565.887C524.079 566.86 523.941 568.18 523.799 569.757" stroke="white" stroke-width="2" stroke-linecap="round"/>
<path d="M525.26 566.837C525.26 566.766 525.364 568.156 525.555 570.516C525.663 571.845 526.058 572.923 526.649 574.271C527.239 575.619 528.008 576.746 528.634 577.859C529.324 579.088 529.301 580.708 529.197 582.058C529.127 582.96 528.848 583.704 528.726 585.102C528.642 586.07 528.639 587.571 528.57 588.611C528.464 590.192 528.118 591.237 527.667 592.94C527.351 594.133 527.009 596.035 525.693 600.721C524.377 605.407 522.136 612.83 520.809 617.011C519.482 621.192 519.137 621.906 518.77 622.844C518.403 623.783 518.023 624.925 516.983 628.761C515.943 632.597 514.253 639.092 513.349 642.51C512.444 645.927 512.375 646.07 512.305 646.286C512.235 646.503 512.166 646.788 511.99 647.299" stroke="white" stroke-width="2" stroke-linecap="round"/>
<path d="M515.431 636.278C515.431 636.21 515.266 636.757 514.982 637.897C514.719 638.95 514.729 640.114 514.563 641.511C514.47 642.304 514.067 643.217 513.565 644.242C513.064 645.267 512.402 646.363 512.044 647.014C511.686 647.664 511.653 647.836 511.603 649.123C511.553 650.411 511.487 652.809 511.403 654.251C511.319 655.692 511.22 656.103 510.771 657.24C510.323 658.377 509.528 660.228 509.086 661.318C508.643 662.408 508.577 662.682 507.947 664.485C507.317 666.289 506.125 669.612 505.362 671.582C504.599 673.551 504.301 674.065 504.015 674.724C503.73 675.383 503.465 676.171 502.898 677.639C502.331 679.107 501.47 681.232 500.928 682.498C499.984 684.698 498.918 685.527 498.028 686.533C497.876 686.708 497.776 686.777 497.676 686.864C497.575 686.95 497.475 687.053 497.373 687.263" stroke="white" stroke-width="2" stroke-linecap="round"/>
<path d="M199.573 133.578C199.055 132.372 198.464 130.677 197.844 127.611C197.444 125.636 197.288 122.734 196.702 120.344C195.636 116.006 194.015 113.475 193.233 111.384C192.747 110.083 191.934 108.355 191.177 105.413C190.421 102.47 189.708 98.3806 189.276 95.1343C188.845 91.888 188.715 89.6086 189.037 86.859C189.359 84.1094 190.136 80.9585 190.698 79.0001C191.261 77.0418 191.585 76.3714 191.918 75.6807" stroke="white" stroke-width="2" stroke-linecap="round"/>
<path d="M192.115 75.2748C191.985 71.9228 191.856 68.5708 191.919 65.2016C191.981 61.8323 192.241 58.5474 192.504 56.2518C192.907 52.7327 193.811 49.9643 194.984 46.9577C195.569 45.461 196.417 44.1522 197.433 42.7576C198.449 41.363 199.679 39.9551 201.253 38.3919C202.826 36.8287 204.704 35.1527 208.91 32.1105C213.116 29.0683 219.593 24.7108 227.691 20.7229C235.788 16.7351 245.309 13.249 252.902 10.8834C260.495 8.51769 265.871 7.37802 281.983 6.35516C298.095 5.3323 327.599 6.00388 355.093 5.10596" stroke="white" stroke-width="2" stroke-linecap="round"/>
<path d="M340.654 203.146C341.439 203.865 343.467 206.15 346.262 206.56C348.603 206.903 352.893 206.699 355.921 206.519C360.626 206.239 362.659 205.426 363.667 204.837C365.325 203.867 367.492 201.973 370.125 199.114C373.107 195.262 375.246 191.769 376.213 189.54C376.656 188.574 377.005 187.942 377.364 187.292" stroke="white" stroke-width="2" stroke-linecap="round"/>
<path d="M375.778 188.931C376.998 188.21 378.585 186.214 380.256 182.717C381.118 180.912 381.403 178.768 381.671 175.128C381.939 171.489 382.026 166.347 381.897 163.202C381.654 157.288 379.48 154.866 378.203 152.447C377.717 151.526 376.839 150.668 375.742 149.757C373.687 148.053 370.945 148.749 366.954 148.295C361.874 147.717 358.001 148.563 356.903 149.29C355.183 150.75 353.076 152.565 351.36 154.43C350.691 155.214 350.43 155.665 350.16 156.403" stroke="white" stroke-width="2" stroke-linecap="round"/>
<path d="M333.52 216.267C332.997 218.251 332.031 221.529 330.8 225.307C330.052 227.602 329.887 228.904 328.22 230.398C325.606 232.739 324.19 235.489 323.448 237.389C322.839 238.948 321.573 241.634 320.377 243.975C318.178 248.284 316.098 251.155 314.648 252.883C312.2 255.803 308.439 257.084 304.549 259.254C301.411 261.004 296.039 264.311 289.639 267.292C283.239 270.273 276.005 272.889 272.148 274.326C268.003 275.872 267.063 276.311 265.352 276.675C263.054 277.163 259.681 277.224 255.467 277.314C250.898 277.412 248.219 277.861 247.256 278.043C243.677 278.719 240.837 279.044 236.674 279.318C234.079 279.411 230.506 279.411 228.491 279.366C226.476 279.321 226.127 279.23 225.504 279.137" stroke="white" stroke-width="2" stroke-linecap="round"/>
<path d="M402.691 107.722C397.05 111.717 389.62 113.715 384.917 116.967C382.182 118.858 377.986 119.913 371.913 120.855C365.84 121.798 357.823 122.259 352.654 122.343C347.484 122.427 345.406 122.12 341.44 121.808C337.474 121.496 331.685 121.188 327.291 120.569C319.993 119.54 314.647 116.388 306.741 111.906C301.46 108.913 293.193 105.273 286.388 100.989C279.584 96.705 274.388 92.0951 270.3 89.4898C266.213 86.8846 263.392 86.4236 261.568 86.1861C259.744 85.9486 259.002 85.9486 257.728 87.1779C251.197 93.4839 250.742 97.8877 249.768 100.914C249.496 101.757 249.392 102.693 249.835 103.322C250.859 104.774 252.834 105.035 253.583 106.118C253.975 106.684 254.035 107.508 253.963 108.134C253.831 109.278 250.17 112.001 245.744 115.801C244.081 117.228 246.382 118.851 246.691 120.162C246.256 121.165 244.623 122.855 244.227 124.033C243.832 125.212 244.722 125.826 245.64 126.459" stroke="white" stroke-width="2" stroke-linecap="round"/>
<path d="M256.889 85.483C255.549 85.6366 251.068 87.7925 248.125 90.0556C245.156 92.3392 239.524 91.5363 232.627 89.6877C226.295 87.9906 223.153 83.9324 222.107 84.0069C217.608 84.3273 212.387 95.3639 210.774 99.2916C210.458 100.06 213.979 100.225 217.648 100.844C219.246 101.114 220.278 101.464 219.032 103.236C217.785 105.007 214.222 108.234 212.61 109.973C210.997 111.713 211.442 111.866 212.488 111.945C213.534 112.025 215.167 112.025 215.118 112.101C214.094 113.69 210.56 113.258 208.84 114.576C207.411 115.67 203.385 108.989 197.919 100.204C195.57 98.181 194.086 101.101 193.024 103.373C191.962 105.645 191.368 107.182 190.307 109.231" stroke="white" stroke-width="2" stroke-linecap="round"/>
<path d="M242.941 94.7959C238.191 97.2545 234.852 100.519 233.948 103.776C233.429 105.646 236.189 106.586 236.195 108.67C236.209 112.867 232.599 117.123 232.592 121C234.367 123.34 235.743 124.9 235.521 126.602C235.298 127.535 234.852 128.611 233.944 129.719" stroke="white" stroke-width="2" stroke-linecap="round"/>
<path d="M231.691 282.916C231.691 282.609 234.067 284.909 239.076 289.633C244.129 294.398 248.477 296.415 250.942 297.805C254.374 299.74 260.142 303.693 268.296 308.182C272.349 310.413 276.005 312.978 283.484 316.473C290.963 319.967 302.098 324.424 308.576 326.873C315.055 329.322 316.539 329.63 324.875 329.942C333.212 330.254 348.355 330.561 356.75 330.565C368.595 329.485 370.925 327.942 375.053 324.526C375.887 323.895 376.129 323.913 376.588 323.755" stroke="white" stroke-width="2" stroke-linecap="round"/>
<path d="M435.983 506.307C435.983 505.906 435.595 509.309 434.815 518.589C433.698 531.855 433.247 542.139 431.885 546.889C429.379 555.623 425.813 559.557 425.023 568.865C425.214 574.119 425.995 578.209 426.876 580.737C427.175 581.861 427.175 582.664 427.763 584.706" stroke="white" stroke-width="2" stroke-linecap="round"/>
<path d="M524.062 584.099C522.312 572.801 519.177 562.433 517.712 560.813C515.363 558.217 505.144 559.181 493.377 561.397C490.321 561.972 487.329 563.812 480.306 565.939C473.284 568.067 462.433 570.874 455.971 572.822C444.505 576.278 438.183 582.434 434.04 585.311C433.256 585.515 432.287 585.715 431.013 585.819C429.739 585.922 428.189 585.922 426.592 585.922" stroke="white" stroke-width="2" stroke-linecap="round"/>
<path d="M431.284 585.921C429.733 585.921 421.184 585.921 408.956 586.021C404.478 586.058 403.51 586.322 398.07 586.526C392.63 586.729 382.748 586.93 375.526 586.933C358.476 586.94 354.188 585.921 350.172 585.116C345.685 584.216 342.445 582.08 337.941 581.162C335.64 580.694 331.106 580.457 325.243 579.546C320.968 578.881 311.964 576.228 300.23 571.569C295.715 569.777 293.921 569.719 286.725 569.716C279.529 569.713 266.934 569.913 259.865 569.816C248.953 569.666 242.449 565.27 237.238 563.945C233.864 563.087 228.933 562.219 222.471 564.942C216.98 567.255 208.605 567.081 197.187 565.677C191.195 564.273 184.801 561.466 177.535 560.019C170.268 558.573 162.324 558.573 154.139 558.573" stroke="white" stroke-width="2" stroke-linecap="round"/>
<path d="M158.253 693.492C158.253 689.675 155.54 676.743 152.293 669.811C150.559 666.109 148.676 656.894 146.621 645.86C145.234 638.415 142.611 633.97 140.74 628.078C139.221 623.29 137.514 618.351 135.165 610.465C134.346 607.716 135.347 604.981 136.809 601.848C140.48 593.983 151.571 590.601 156.474 587.25C157.614 586.47 158.817 585.934 159.319 585.323C160.103 584.368 159.427 582.488 159.815 580.568C160.202 579.65 160.977 578.848 163.121 577.632C165.264 576.417 168.752 574.812 172.932 572.552" stroke="white" stroke-width="2" stroke-linecap="round"/>
<path d="M146.504 587.744C147.86 583.52 151.389 573.803 154.322 562.766C154.918 560.408 155.112 559.205 155.405 558.083C155.699 556.962 155.845 553.165 156.245 552.132" stroke="white" stroke-width="2" stroke-linecap="round"/>
<path d="M156.246 552.132C156.246 551.731 156.877 548.272 157.464 542.009C158.086 535.373 158.245 526.217 159.125 512.294C159.65 503.998 159.425 493.156 159.328 486.975C159.231 480.794 159.037 479.591 158.938 476.665C158.838 473.739 158.838 469.126 158.838 464.373" stroke="white" stroke-width="2" stroke-linecap="round"/>
<path d="M16.7402 507.523C19.8464 506.119 26.1232 502.867 30.709 501.956C40.5317 500.003 50.7257 499.622 58.7905 499.118C65.382 498.705 71.3295 499.817 74.5531 501.433C80.4058 504.368 85.2161 510.744 89.9253 513.39C96.6383 517.163 109.689 513.807 116.339 513.7C118.33 513.669 121.427 515.812 126.116 518.945C130.175 521.657 136.67 525.931 144.494 530.383C151.379 535.868 154.655 536.58 157.013 539.017C157.409 539.825 156.813 542.406 157.013 543.646" stroke="white" stroke-width="2" stroke-linecap="round"/>
<path d="M156.488 673.436C160.176 673.436 172.283 669.826 178.296 665.243C182.564 661.99 188.947 659.676 195.409 658.549C200.471 657.666 204.818 656.425 208.908 654.109C222.745 646.275 229.086 642.453 234.074 641.733C235.754 641.49 240.025 641.225 246.378 641.125C250.61 641.058 256.073 641.219 265.916 644.237C280.602 648.738 289.371 656.206 291.814 657.826C293.516 658.955 301.255 662.861 313.662 669.64C319.17 672.65 323.55 673.812 330.881 675.538C338.212 677.264 348.482 679.27 355.807 681.105C363.131 682.941 367.201 684.545 371.138 685.773C375.075 687 378.756 687.803 395.282 688.316C411.808 688.83 441.067 689.03 457.011 689.033C474.701 689.037 478.628 688.629 483.505 688.328C489.544 687.426 494.488 686.806 497.321 686.605C498.604 686.405 499.572 686.004 501.745 685.59" stroke="white" stroke-width="2" stroke-linecap="round"/>
<path d="M433.047 689.237V702" stroke="white" stroke-width="2" stroke-linecap="round"/>
<path d="M49.2363 567.451C50.4957 559.93 50.7728 556.459 51.6103 544.264C52.1746 536.047 53.4343 529.815 53.365 526.415C53.2957 525.023 53.1572 524.306 52.8088 519.348C52.4603 514.391 51.6366 509.122 51.0657 499.667" stroke="white" stroke-width="2" stroke-linecap="round"/>
<defs>
<filter id="filter0_f_1344_1949" x="19.9609" y="0" width="525.039" height="707" filterUnits="userSpaceOnUse" color-interpolation-filters="sRGB">
<feFlood flood-opacity="0" result="BackgroundImageFix"/>
<feBlend mode="normal" in="SourceGraphic" in2="BackgroundImageFix" result="shape"/>
<feGaussianBlur stdDeviation="2" result="effect1_foregroundBlur_1344_1949"/>
</filter>
<filter id="filter1_f_1344_1949" x="0" y="0" width="525.039" height="707" filterUnits="userSpaceOnUse" color-interpolation-filters="sRGB">
<feFlood flood-opacity="0" result="BackgroundImageFix"/>
<feBlend mode="normal" in="SourceGraphic" in2="BackgroundImageFix" result="shape"/>
<feGaussianBlur stdDeviation="2" result="effect1_foregroundBlur_1344_1949"/>
</filter>
</defs>
</svg>
